<svg xmlns="http://www.w3.org/2000/svg" width="640" height="640"><path d="M106.597 113.585c-4.43 0-8 3.59-8 8v96c0 4.42 3.57 8 8 8h64c4.42 0 8-3.58 8-8v-8h32v240h-56c-4.43 0-8 3.58-8 8v48c0 4.43 3.57 8 8 8h176c4.41 0 8-3.57 8-8v-48c0-4.42-3.59-8-8-8h-56v-240h128v52.123c-14.925 8.836-26.102 23.323-30.606 40.611h-2.25c-33.08.01-59.64 26.83-59.63 59.66.01 33.08 26.84 59.631 59.67 59.621 13.4 0 120.66-.04 134.07-.04 24.56-.01 44.35-19.81 44.34-44.37-.01-24.56-20.06-44.6-44.62-44.59h-1.25c1-4.26 1.25-8.78 1.25-13.29-.02-37.09-30.101-66.9-66.941-66.89a67.142 67.142 0 0 0-18.033 2.468v-45.303h72a8.01 8.01 0 0 0 6.799-3.79 7.987 7.987 0 0 0 .361-7.779l-32-64a8.004 8.004 0 0 0-7.16-4.431h-280v-8c0-4.41-3.58-8-8-8z" fill="#fff"/></svg>