<svg xmlns="http://www.w3.org/2000/svg" width="640" height="640"><path d="M101.153 120.746c-4.43 0-8 3.59-8 8v96c0 4.42 3.57 8 8 8h54c4.42 0 8-3.58 8-8v-18h52v260h-36c-4.43 0-8 3.58-8 8v38c0 4.43 3.57 8 8 8h136c4.41 0 8-3.57 8-8v-38c0-4.42-3.59-8-8-8h-36v-260h168v57.26c-26.313 4.143-47.486 23.556-54.131 49.066h-2.25c-33.08.01-59.64 26.83-59.63 59.66.01 33.08 26.84 59.632 59.67 59.622 13.4 0 120.66-.041 134.07-.041 24.56-.01 44.35-19.81 44.34-44.37-.01-24.56-20.06-44.6-44.62-44.59h-1.25c1-4.26 1.25-8.78 1.25-13.29-.019-35.228-27.16-63.868-61.45-66.649v-56.668h72a8.014 8.014 0 0 0 6.802-3.79 7.987 7.987 0 0 0 .359-7.78l-32-44c-1.789-2.46-4.13-4.412-7.16-4.43h-340v-18c-1.07-4.278-3.58-8-8-8z" fill="#fff"/></svg>
